<svg xmlns="http://www.w3.org/2000/svg" width="107.542" height="107.629" viewBox="0 0 107.542 107.629"><g transform="translate(-117.92 -241.483)"><path d="M128.563,252.623c-1.613,0-3.191.007-4.769,0a5.572,5.572,0,1,1-.026-11.129q4.695-.018,9.39,0a5.616,5.616,0,0,1,5.871,5.22c.922,6.882,1.882,13.759,2.842,20.756h79.315c2.285,0,3.7.883,4.16,2.733a4.4,4.4,0,0,1-.01,2.04q-5.128,20.733-10.326,41.449a7.342,7.342,0,0,1-7.471,5.73q-31.88.012-63.76,0a7.384,7.384,0,0,1-7.7-6.824c-.76-5.742-1.437-11.5-2.153-17.244q-1.576-12.646-3.157-25.291-.981-7.875-1.957-15.751C128.744,253.778,128.655,253.249,128.563,252.623Z" fill="#fff"/><path d="M189.793,528.167a11.128,11.128,0,1,1,11.09,11.17A11.165,11.165,0,0,1,189.793,528.167Z" transform="translate(-49.609 -190.225)" fill="#fff"/><path d="M344.651,517.077a11.13,11.13,0,1,1-11.113,11.144A11.158,11.158,0,0,1,344.651,517.077Z" transform="translate(-148.828 -190.225)" fill="#fff"/></g></svg>