<svg xmlns="http://www.w3.org/2000/svg" width="24.035" height="24.03" viewBox="0 0 24.035 24.03"><g transform="translate(-61.038 -192.854)"><path d="M253.843,340.138c.466,0,.933-.007,1.4,0a.778.778,0,0,1,.713.565v7.931q-1.313-.006-2.626-.011c-.352,0-.7,0-1.055.01-.162.006-.217-.042-.214-.209.01-.5,0-1,0-1.5q0-2.944,0-5.887a.5.5,0,0,1,.034-.3c.115.116.08.264.08.4q0,3.458,0,6.915c0,.459,0,.462.464.459.674,0,.606.075.606-.6q0-3.364,0-6.728c0-.094,0-.188,0-.281A.671.671,0,0,1,253.843,340.138Z" transform="translate(-170.881 -131.753)" fill="#fff"/><path d="M149.633,192.9c0-.014,0-.029,0-.043h.986c0,.014,0,.029,0,.043A1.358,1.358,0,0,1,149.633,192.9Z" transform="translate(-79.254)" fill="#fff"/><path d="M83.486,193.265h.99a8.107,8.107,0,0,1,4.639,1.756,6.749,6.749,0,0,1,1.13,1.078,1.575,1.575,0,0,0,.189.171c.041.1-.028.179-.072.258-.488.88-.987,1.754-1.476,2.633-.153.276-.141.435.031.532s.352.012.5-.251c.436-.784.872-1.568,1.318-2.346.039-.069.054-.171.168-.168a9.876,9.876,0,0,1,1.012,2.15,8.638,8.638,0,0,1,.315,3.414c-.024.256-.1.5-.108.76-.081.1-.195.082-.3.083-.3,0-.6,0-.9,0-.351-.009-.7,0-1.054,0a.615.615,0,0,0-.6.44,1.446,1.446,0,0,0-.071.531q0,1.71,0,3.42c0,.122.025.252-.07.357-.369.232-.715.5-1.1.71a8.093,8.093,0,0,1-2.774.944,6.58,6.58,0,0,1-.929.092c-.321,0-.321,0-.321-.309V201.9c0-.371,0-.371-.367-.371-2.557,0-5.115,0-7.673,0-.218,0-.278-.059-.271-.275a8.308,8.308,0,0,1,4.947-7.313,7.993,7.993,0,0,1,2.289-.636A4.633,4.633,0,0,1,83.486,193.265Z" transform="translate(-13.107 -0.368)" fill="#fff"/><path d="M66.576,294.131a8.334,8.334,0,0,1-5.537-7.617c-.006-.181.048-.219.22-.218q3.931.008,7.861,0c.192,0,.229.059.229.237q-.008,3.918,0,7.836c0,.2-.063.245-.252.235a10.5,10.5,0,0,1-1.784-.248c-.05-.089,0-.167.03-.244.12-.3.278-.592.4-.893a1.408,1.408,0,0,0,.1-.238.3.3,0,0,0-.522-.255,1.072,1.072,0,0,0-.154.287c-.132.308-.281.607-.419.912C66.711,294.005,66.682,294.1,66.576,294.131Z" transform="translate(0 -83.59)" fill="#fff"/><path d="M205.23,288.017l1.219-.015a.833.833,0,0,1,.72.264.751.751,0,0,1,.18.495q0,6.509,0,13.017c0,.14-.02.211-.188.21-1.173,0-2.346,0-3.519,0-.053,0-.111.015-.151-.038a.353.353,0,0,1,.284-.077c.2,0,.391,0,.586,0,.255,0,.273-.023.279-.286,0-.078,0-.156,0-.234V289.1c0-.1,0-.2,0-.3A.7.7,0,0,1,205.23,288.017Z" transform="translate(-127.434 -85.116)" fill="#fff"/><path d="M204.874,288.105a.9.9,0,0,0-.523.968c.013,4.222.008,8.444.008,12.666,0,.3,0,.3-.309.3l-.915,0c-.06-.085-.03-.182-.031-.273q0-4.27,0-8.54c0-.1-.006-.2-.01-.3q.005-1.968.01-3.936a.966.966,0,0,1,.133-.559.663.663,0,0,1,.56-.328C204.155,288.1,204.514,288.1,204.874,288.105Z" transform="translate(-127.078 -85.205)" fill="#fff"/><path d="M155.245,377.494a2.944,2.944,0,0,1,1-.029c.461.04.921.02,1.381.029a.711.711,0,0,1,.772.771c0,1.165,0,2.331,0,3.5,0,.18-.042.243-.234.241-1.134-.008-2.269,0-3.4,0-.074,0-.159.03-.219-.045.185-.126.394-.066.592-.07.61-.013.555.067.556-.55,0-.99,0-1.981,0-2.971a.811.811,0,0,1,.494-.864c.028-.015-.027-.023,0,0,.009.007.005.015-.013.019A1.45,1.45,0,0,1,155.245,377.494Z" transform="translate(-83.648 -165.123)" fill="#fff"/><path d="M254.183,340.11a.822.822,0,0,0-.524.886c.015,2.424,0,4.849.013,7.273,0,.246-.071.312-.3.293a4.911,4.911,0,0,0-.7,0c-.18.011-.224-.056-.223-.228.006-1.267,0-2.534,0-3.8s0-2.549-.007-3.824a.686.686,0,0,1,.667-.6C253.465,340.1,253.824,340.108,254.183,340.11Z" transform="translate(-171.221 -131.724)" fill="#fff"/><path d="M201.378,210.059l-1.173,2.071c-.115.2-.225.409-.349.607a.357.357,0,1,1-.613-.362c.283-.511.573-1.017.858-1.527q.405-.723.808-1.447c.229-.408.461-.815.686-1.226a.413.413,0,0,1,.4-.232q2.509,0,5.018,0a.365.365,0,0,1,.414.351c0,.217-.161.359-.43.359-1.509,0-3.017.005-4.526,0a.43.43,0,0,0-.459.26C201.819,209.3,201.592,209.677,201.378,210.059Z" transform="translate(-123.583 -13.498)" fill="#fff"/><path d="M67.766,347.113q.319-.677.638-1.354a.362.362,0,0,1,.414-.232.35.35,0,0,1,.29.3.54.54,0,0,1-.087.333c-.167.395-.385.766-.517,1.176-.3.522-.515,1.085-.777,1.625-.181.372-.351.75-.522,1.127a.42.42,0,0,1-.426.264c-1.322,0-2.644,0-3.965,0-.287,0-.444-.134-.444-.368s.155-.37.444-.371c1.173,0,2.347-.007,3.52,0a.383.383,0,0,0,.42-.263C67.079,348.6,67.426,347.859,67.766,347.113Z" transform="translate(-1.189 -136.572)" fill="#fff"/><path d="M155.21,377.98h.987c-.006.091-.085.086-.129.119a.747.747,0,0,0-.338.629c0,1.139,0,2.277,0,3.416,0,.3,0,.3-.308.3h-.913c0-1.257-.007-2.515,0-3.772A.681.681,0,0,1,155.21,377.98Z" transform="translate(-83.614 -165.608)" fill="#fff"/><path d="M238.691,194.2c.57,0,1.139,0,1.709,0,.277,0,.45.147.445.369s-.17.349-.438.35q-1.709,0-3.418,0c-.281,0-.452-.147-.445-.366s.174-.352.461-.353Q237.848,194.2,238.691,194.2Z" transform="translate(-157.002 -1.205)" fill="#fff"/><path d="M64.211,369.568c.468,0,.937,0,1.4,0,.291,0,.45.128.454.355s-.146.373-.437.375q-1.428.007-2.856,0c-.287,0-.44-.147-.431-.38s.163-.348.437-.349C63.259,369.566,63.735,369.568,64.211,369.568Z" transform="translate(-1.169 -158.082)" fill="#fff"/><path d="M255.425,267.564c-.406,0-.811,0-1.217,0-.286,0-.442-.138-.44-.371s.157-.362.448-.362q1.229,0,2.457,0c.289,0,.443.137.441.37s-.161.361-.449.363C256.252,267.566,255.839,267.564,255.425,267.564Z" transform="translate(-172.41 -66.175)" fill="#fff"/><path d="M255.427,282.451c-.414,0-.829,0-1.243,0-.271,0-.421-.138-.417-.366s.143-.349.407-.35q1.266-.005,2.533,0c.262,0,.4.131.406.352s-.151.363-.419.365C256.271,282.453,255.849,282.451,255.427,282.451Z" transform="translate(-172.409 -79.506)" fill="#fff"/><path d="M255.461,296.541c.407,0,.813,0,1.22,0,.273,0,.427.131.429.355s-.144.362-.42.363q-1.255.005-2.51,0c-.275,0-.421-.136-.417-.365s.156-.351.431-.353C254.617,296.539,255.039,296.541,255.461,296.541Z" transform="translate(-172.406 -92.755)" fill="#fff"/></g></svg>