<svg xmlns="http://www.w3.org/2000/svg" viewBox="0 0 224.31 209.34"><defs><style>.cls-1{fill:#fff;}</style></defs><g id="Layer_2" data-name="Layer 2"><g id="Layer_1-2" data-name="Layer 1"><path class="cls-1" d="M224.31,35C213.92,66,204,97.27,193,128.11a352.28,352.28,0,0,1-20.87,48c-11.31,21.06-29.12,33.69-54,33.23a48.23,48.23,0,0,1-17.82-4.06Q61.76,188.59,23.67,171C9,164.21.73,152.51.06,136.14c-.26-6.24.39-12.53.66-19.75,2.91,1,4.73,1.6,6.5,2.32,29.64,12,59.25,24,88.94,35.83,3.19,1.26,4,3,4.29,6.21a69.4,69.4,0,0,0,2.63,15.67c4,12.51,13.47,17.42,26.18,14.21,14.89-3.75,24.06-14.37,30.08-27.3,7.85-16.87,14.69-34.26,21.09-51.75,7.72-21.1,14.53-42.53,21.7-63.82.69-2,1.16-4.14,1.91-6.82-9.28-2-18.31-4-27.39-5.78-26.28-5.23-52.59-10.3-78.85-15.67-4.11-.85-5.68.08-7.11,4.1C81.3,50.11,71.6,76.52,62,103a77.07,77.07,0,0,1-3.53,8.26c-2.24,4.5-6.4,6.07-10.78,4.31a8.44,8.44,0,0,1-4.54-10.41q9.34-26.89,19-53.67c5.51-15.18,11.24-30.28,17-45.37C81.15.66,83.78-.77,89.58.36q38.48,7.44,76.93,15.06c16,3.18,32,6.49,48,9.77,4.56.93,8.71,2.46,9.84,7.77Z"/></g></g></svg>