<svg xmlns="http://www.w3.org/2000/svg" width="24.029" height="24.03" viewBox="0 0 24.029 24.03"><g transform="translate(-47.932 -399.079)"><path d="M47.935,549.282c0-.414.005-.829,0-1.243,0-.133.036-.171.168-.167.344.009.688-.008,1.032.008.178.008.216-.044.215-.217-.006-2.228,0-4.456-.009-6.684,0-.2.047-.241.241-.239q1.912.015,3.823,0c.178,0,.215.044.215.217-.006,2.228,0,4.456-.009,6.684,0,.2.047.249.241.239.335-.018.672-.012,1.008,0,.136,0,.169-.039.166-.17-.009-.336,0-.672,0-1.008q0-4.972-.005-9.944c0-.2.048-.24.241-.239q1.888.015,3.776,0c.178,0,.215.045.214.218-.006,3.627,0,7.255-.009,10.882,0,.214.052.276.265.263a9.6,9.6,0,0,1,.961,0c.156.006.191-.043.19-.193-.006-1.22,0-2.439,0-3.659,0-1.493,0-2.986,0-4.48,0-.177.044-.216.217-.215q1.9.012,3.8,0c.178,0,.215.045.215.218-.006,2.7,0,5.394-.009,8.091,0,.2.047.249.241.239.335-.018.672-.012,1.008,0,.136,0,.183-.039.164-.17a1,1,0,0,1,0-.141q0-6.8-.005-13.6c0-.214.053-.265.264-.263q1.888.016,3.776,0c.2,0,.239.048.239.241q-.009,6.837-.01,13.673c0,.212.05.274.264.264.382-.019.766-.005,1.149-.005,0,.43,0,.86,0,1.29,0,.1-.019.138-.121.118a.489.489,0,0,0-.094,0Z" transform="translate(0 -126.179)" fill="#fff"/><path d="M75.795,404.713c-.407,0-.813-.007-1.22,0-.154,0-.193-.039-.192-.192.007-.992,0-1.984,0-3.015-.081.074-.141.126-.2.181q-3.7,3.678-7.4,7.361c-.166.166-.238.145-.391-.008-1.747-1.758-3.5-3.507-5.251-5.263-.136-.137-.2-.162-.358-.008q-3.817,3.812-7.645,7.613c-.131.13-.2.164-.34.009a7.56,7.56,0,0,0-.68-.679c-.157-.138-.119-.209.011-.339q4.23-4.195,8.451-8.4c.121-.12.243-.325.372-.331.153-.007.265.213.39.338q2.548,2.543,5.091,5.091c.1.1.153.163.289.026q3.262-3.255,6.537-6.5a.439.439,0,0,1,.1-.057l-.029-.058h-.479c-.852,0-1.7,0-2.557,0-.154,0-.2-.04-.191-.192.012-.336.015-.673,0-1.008-.009-.178.044-.216.217-.215,1.822.007,3.643,0,5.465,0Z" transform="translate(-3.837 0)" fill="#fff"/></g></svg>