<svg id="Layer_2" data-name="Layer 2" xmlns="http://www.w3.org/2000/svg" width="293.14" height="299.28" viewBox="0 0 293.14 299.28">
  <g id="Layer_1" data-name="Layer 1">
    <path id="Path_32630" data-name="Path 32630" d="M286.72,254.39H14.55L0,214.49l271.32,5.32Z" fill="#456ba9"/>
    <path id="Path_32631" data-name="Path 32631" d="M95.35,140.86l-2.23-1.64C93.83,139.77,94.58,140.31,95.35,140.86Z" fill="#456ba9"/>
    <path id="Path_32632" data-name="Path 32632" d="M222.36,105.31A187,187,0,0,0,215.1,69a18.23,18.23,0,0,0,3.15-12.31c-.79-7.26-7.42-25.89-7.89-39.15,0-4.42.32-10.1-12.63-4.26C193.47,15.63,186.21,21,186.21,21s-2.53-12.94-3-15.94-3.47-1.42-3.63,3-.79,3-.79,2.68-2.79-7.9-3.47-8.37-1.9-1.42-2,3.47,1.26,10.89.94,11.52-2.05-3-2.36-5.68S167.27,0,166.32,0s-1.74,3.63-1.74,7-.63,9.78-3.15,10.41-14.45-3-23.68.67C136,15.9,134.32,13.3,134.44,7.5S133.49-2.8,131,2.41s-4.73,15.39-5.8,15,.59-8.28.83-11-1.07-7.69-3.2-2.37-2.48,8.41-2.84,7.82-.71-8.53-2.84-8.17S113.72,12.23,113.6,15s.24,6.63-.59,6.27-7.82-7.46-13.14-8.76-10-3.31-11.37,1.3S93.24,15.19,83.65,45c-1.46,4.69-5.8,15.74,0,23.63,0,0,2.48,1.94.12,11.17S79,111.09,78.56,116.77s16.61,23.88,16.86,24.15a111.778,111.778,0,0,0,12.18,7.46s20.21,8.2,23.2,10.26S141.22,164,143.75,164s15.78,1.11,22.1-4.57c2.68-1.58,10.26-6,14.36-6.48s24.78-12.47,30.31-17.36S223.93,124,222.36,105.31Z" fill="#456ba9"/>
    <path id="Path_32633" data-name="Path 32633" d="M95.42,140.92h0l-.07-.06Z" fill="#608cc8"/>
    <path id="Path_32634" data-name="Path 32634" d="M82.42,117.23c-1.79-5.7-1-28.16,1.35-37.4s-.12-11.17-.12-11.17c-.57,6.16-6.51,31.89-7.62,39.15-.9,5.93-.43,18,17.09,31.41l2.23,1.64.07.06C95.17,140.65,84.11,122.63,82.42,117.23Z" fill="#608cc8"/>
    <path id="Path_32635" data-name="Path 32635" d="M91.46,14.48C91,14.32,89.09,42,85.54,50.23s-5,12.32-3.31,11.37,9.23-9.47,12.07-11.37,15.39-15.62,14.92-17.52S101.17,18,91.46,14.48Z" fill="#1d2149"/>
    <path id="Path_32636" data-name="Path 32636" d="M86.65,74.19s3.47-.44,9.31-4.54,22.89,2,30.46,5,17.53,6.32,9.63,12S120.9,97.08,117.43,97.08s-18.63-2.53-22.73-10S89.8,75.92,86.65,74.19Z" fill="#1d2149"/>
    <path id="Path_32637" data-name="Path 32637" d="M209.35,74.19a64.4,64.4,0,0,0-7.63-5.91c-5.84-4.11-24.57,3.38-32.15,6.38s-17.52,6.32-9.63,12,15.15,10.42,18.63,10.42,18.62-2.53,22.73-10S206.19,75.92,209.35,74.19Z" fill="#1d2149"/>
    <path id="Path_32638" data-name="Path 32638" d="M192.28,81.6s-5.74,4.82-8.91,5.22S170.53,85.55,170.45,83s-.53-3,2.87-4.48,8.31-2.35,11.25-1.55S192.28,81.6,192.28,81.6Z" fill="#10142e"/>
    <path id="Path_32639" data-name="Path 32639" d="M188.77,32.6a2.18,2.18,0,0,1,3.32.59c1.42,2.13,4.73,9.59,8.52,12.66s5.57,4.15,6,3,1.54-4.61,2.37-4.14,2.48-.35.35-5.21-2.72-18-3.43-21.54.95-6.28-5.56-1.9-10.66,7.58-11.61,11S186.17,36.86,188.77,32.6Z" fill="#1d2149"/>
    <path id="Path_32640" data-name="Path 32640" d="M106.85,81.76a9.8,9.8,0,0,1,9.47-3.59c6.39,1,7.58,3.91,6.87,4.86s-3.91,4-9.71,2.84C109,84,107.56,82.51,106.85,81.76Z" fill="#a2d1f0"/>
    <path id="Path_32641" data-name="Path 32641" d="M188.69,81.45a9.78,9.78,0,0,0-9.48-3.59c-6.39,1-7.57,3.9-6.86,4.85s3.91,4,9.71,2.84C186.55,83.66,188,82.2,188.69,81.45Z" fill="#a2d1f0"/>
    <path id="Path_32642" data-name="Path 32642" d="M125.48,96.13a6.18,6.18,0,0,0-2.84,6.63c.79,4.73,3.78,5.21,9.15,8.21s9.63,8.84,12.16,9.47,8.36.47,10.73-2,8.84-8.22,14.52-10,4.58-10.1,1.74-11.36-7.26-6.63-18-7.11S135.9,90.6,125.48,96.13Z" fill="#141618"/>
    <path id="Path_32643" data-name="Path 32643" d="M127.21,137.74A41.52,41.52,0,0,0,138,142.38c5.68,1.42,8.68,2.21,12,1.42s17.14-6.6,18.27-6.4-6.07-1.9-6.07-1.9l-9.95-1.5-9.73-.34-6.7,1.38Z" fill="#1d2149"/>
    <path id="Path_32644" data-name="Path 32644" d="M103.06,129s8,10.58,26.68,7.26c12.31-3.31,12.15-3.46,17.84-3.31s22.57,4.6,28.57,4,15.15-6.17,15.62-7.91A24.39,24.39,0,0,1,164,136.22s-20.68-4.89-34.09.95C128.16,137.9,114,140.48,103.06,129Z" fill="#0b1a36"/>
    <path id="Path_32645" data-name="Path 32645" d="M192,18.42h0l-1.56,1.08a3.46,3.46,0,0,1-5.36-2.18c-.75-3.94-1.7-8.94-2-10.67-.48-3-3.48-1.42-3.63,3s-.79,3-.79,2.69-2.85-7.9-3.48-8.37-1.89-1.42-2.05,3.47,1.26,10.9,1,11.53-2.05-3-2.37-5.69S167.17,1.6,166.23,1.6s-1.74,3.63-1.74,7-.63,9.79-3.16,10.42c-2.32.58-12.58-2.44-21.39-.08a3.48,3.48,0,0,1-4-1.64,15.55,15.55,0,0,1-1.64-8.15c.12-5.8-1-10.3-3.43-5.09s-4.74,15.39-5.8,15,.59-8.29.83-11-1.07-7.7-3.2-2.37-2.49,8.4-2.84,7.81-.71-8.52-2.84-8.17-3.44,8.53-3.55,11.25.23,6.63-.6,6.27c-.34-.14-1.76-1.46-3.68-3a3.44,3.44,0,0,0-5.58,2h0a3.43,3.43,0,0,0,.9,3c4.23,4.36,17.76,19.59,18.43,36.83.79,20.45,45.39,13.3,50.63,1.68S189.83,19.88,192,18.42Z" fill="#4a74b0"/>
    <path id="Path_32646" data-name="Path 32646" d="M189.48,187.2s2.15,7.3-.59,12c6.79,0,14.84.19,16.26,6.51s-4.1,8.2-8.13,8.68-11.29.71-11.29.71l-2.84-8.29,1-9.94Z" fill="#154372"/>
    <path id="Path_32647" data-name="Path 32647" d="M138.6,212.45s7,6.94,18.7,0,14.1-13.1,14.1-13.1l-11.6-10.18L151.75,184l-11-.23L130.91,193l-5,6.16-2.13,8.28Z" fill="#154372"/>
    <path id="Path_32648" data-name="Path 32648" d="M184.59,208.19s4.58,9.47,0,14.84-22.73,5.21-25.73,1.1-3.47-9.78-.79-12.78,10.26-7.26,10.26-7.26-.22-14.45,4.86-23.8,16,0,16,0A44.38,44.38,0,0,1,184.59,208.19Z" fill="#456ba9"/>
    <path id="Path_32649" data-name="Path 32649" d="M127.72,200.77l15-14.09,10.42-.36,14.69,14.45s2.68-14.44,5.21-20.48-5.58-13.14-5.58-13.14l-33.72.63-6.8.51-4.73,3.6v6.78S128.19,197.46,127.72,200.77Z" fill="#040405"/>
    <path id="Path_32650" data-name="Path 32650" d="M190.77,179.82a61.47,61.47,0,0,0-18.7,0c-1.18-3.2-4.63-11.68-4.63-11.68L183,164S191.13,176.86,190.77,179.82Z" fill="#262b32"/>
    <path id="Path_32651" data-name="Path 32651" d="M105.55,180.29a62.79,62.79,0,0,1,17.77-.16l.94.16c1.18-3.19,4.63-11.68,4.63-11.68l-15.52-4.18S105.2,177.33,105.55,180.29Z" fill="#262b32"/>
    <path id="Path_32652" data-name="Path 32652" d="M105.38,146.63s34.1,15.15,33.62,16.1-1.72,3.16,0,7.58c-10.58-1.42-30.16-5.68-30.79-5.68S95,148.53,95.44,148.05,105.38,146.63,105.38,146.63Z" fill="#1b1e22"/>
    <path id="Path_32653" data-name="Path 32653" d="M196.14,145.61s-40.9,15.81-40.33,16.79,2.07,3.3,0,7.91c12.7-1.48,36.18-5.93,36.94-5.93s15.9-16.8,15.34-17.29S196.14,145.61,196.14,145.61Z" fill="#1b1e22"/>
    <path id="Path_32654" data-name="Path 32654" d="M139,162.73A9,9,0,0,0,140.9,173c-1.37,2-2.74,6.79-2.74,6.79s8,12.31,9.52,13.89l10.26-13.89s-3.47-6.47-3.15-7.1,3.93-6.34,1-10.28c-3.07,1-7.49,2.07-16.33.33" fill="#a5a4a4"/>
    <path id="Path_32655" data-name="Path 32655" d="M106.14,187.67s-2.16,7.3.58,12c-6.78,0-14.83.2-16.25,6.51s4.1,8.21,8.12,8.68,11.29.71,11.29.71l2.84-8.29-1-9.94Z" fill="#154372"/>
    <path id="Path_32656" data-name="Path 32656" d="M111.3,208.19s-4.58,9.47,0,14.84,22.73,5.21,25.73,1.1,3.47-9.78.79-12.78-10.26-7.26-10.26-7.26.23-14.45-4.86-23.8-16,0-16,0a44.38,44.38,0,0,0,4.6,27.9Z" fill="#456ba9"/>
    <path id="Path_32657" data-name="Path 32657" d="M97.62,149.09c.23,0,11,15,11,15l16.93,3.06Z" fill="#343c4f"/>
    <path id="Path_32658" data-name="Path 32658" d="M183.8,166.45l6.55,12.86-5.76-.86Z" fill="#5f6777"/>
    <path id="Path_32659" data-name="Path 32659" d="M112.77,166.06l-6.63,13a29.431,29.431,0,0,0,3.31-1.42C109.46,177.5,112.77,166.06,112.77,166.06Z" fill="#5f6777"/>
    <path id="Path_32660" data-name="Path 32660" d="M139.58,163.29s-.76,6.51,2.43,9.59a41.809,41.809,0,0,1-2.51,6.43s7.84,13,7.72,12.75-5-12.75-5-12.75,2.25-4.16,1.3-7.42a54.8,54.8,0,0,0-3.94-8.6Z" fill="#f2f2f3"/>
    <path id="Path_32661" data-name="Path 32661" d="M115,207.73s6,11.58,2.85,18.57a16.383,16.383,0,0,1,2.14.42S124.48,224.31,115,207.73Z" fill="#1e4e87"/>
    <path id="Path_32662" data-name="Path 32662" d="M127.87,210.49s6.87,9.45,5.23,15.78c1-.3,1.72-.58,1.72-.58S138.26,223,127.87,210.49Z" fill="#1e4e87"/>
    <path id="Path_32663" data-name="Path 32663" d="M179.09,208.15s-6,11.58-2.85,18.57c-2.51.48-2.14.42-2.14.42S169.59,224.74,179.09,208.15Z" fill="#1e4e87"/>
    <path id="Path_32664" data-name="Path 32664" d="M168,210.49s-6.87,9.45-5.23,15.78c-1-.3-1.72-.58-1.72-.58S157.58,223,168,210.49Z" fill="#1e4e87"/>
    <path id="Path_32665" data-name="Path 32665" d="M219,90.84s8,28.89-5.68,40a145.762,145.762,0,0,1-25.57,16.81S210,127.07,214,113.57A136.26,136.26,0,0,0,219,90.84Z" fill="#1e4e87"/>
    <path id="Path_32666" data-name="Path 32666" d="M104,81.9s5.74,4.83,8.91,5.23,12.84-1.27,12.92-3.82.53-3-2.87-4.49-8.31-2.34-11.25-1.54S104,81.9,104,81.9Z" fill="#10142e"/>
    <path id="Path_32667" data-name="Path 32667" d="M106.85,81.76a9.8,9.8,0,0,1,9.47-3.59c6.39,1,7.58,3.91,6.87,4.86s-3.91,4-9.71,2.84C109,84,107.56,82.51,106.85,81.76Z" fill="#a2d1f0"/>
    <path id="Path_32668" data-name="Path 32668" d="M293.14,252.95H20.97L6.42,213.06l271.32,5.32Z" fill="#e8e8e8"/>
    <text id="WHITE_WALKER" data-name="WHITE WALKER" transform="translate(18.21 246.38)" fill="#231f20" font-size="26.24" font-family="SegoeUI, Segoe UI"><tspan x="0" y="0">WHITE WALKER</tspan></text>
    <text id="INU" transform="translate(103.32 290.28)" fill="#e8e8e8" font-size="37.35" font-family="SegoeUI, Segoe UI"><tspan x="0" y="0">INU</tspan></text>
  </g>
</svg>
