<svg xmlns="http://www.w3.org/2000/svg" xmlns:xlink="http://www.w3.org/1999/xlink" width="27.589" height="24.03" viewBox="0 0 27.589 24.03"><defs><linearGradient id="a" x1="0.5" x2="0.5" y2="1" gradientUnits="objectBoundingBox"><stop offset="0" stop-color="#657a8f"/><stop offset="1" stop-color="#04080d"/></linearGradient></defs><g transform="translate(-147.473 -134.806)"><path d="M147.473,145.42a1.106,1.106,0,0,1,.69-.587q12.831-4.943,25.66-9.893a1.112,1.112,0,0,1,.623-.123.775.775,0,0,1,.6.936q-.783,3.782-1.574,7.562-.85,4.083-1.7,8.166c-.463,2.223-.923,4.447-1.394,6.668a.748.748,0,0,1-1.277.477q-3.1-2.236-6.185-4.481a1.071,1.071,0,0,0-1.51.032q-1.661,1.349-3.318,2.7a.769.769,0,0,1-1.356-.409q-1.179-3.77-2.349-7.542a.418.418,0,0,0-.287-.306c-1.95-.722-3.9-1.455-5.847-2.175a1.227,1.227,0,0,1-.774-.6Z" transform="translate(0)" fill="#fff"/><path d="M219.734,186.613a1.311,1.311,0,0,1,.7-1.179q2.5-1.529,4.984-3.068l7.156-4.407c.053-.033.109-.062.162-.1a.191.191,0,0,1,.281.056.185.185,0,0,1-.018.266c-.064.063-.129.125-.194.186q-4.981,4.63-9.964,9.257a2.61,2.61,0,0,0-.807,1.7c-.084.72-.182,1.439-.279,2.158-.024.175-.078.338-.3.353s-.3-.111-.351-.3q-.659-2.318-1.322-4.635A1.953,1.953,0,0,1,219.734,186.613Z" transform="translate(-63.936 -38.063)" fill="url(#a)"/></g></svg>