<svg xmlns="http://www.w3.org/2000/svg" width="25.323" height="20.677" viewBox="0 0 25.323 20.677"><g><path fill="#fff" d="M113.341,459.2a10.628,10.628,0,0,0,7.653-2.128c-2.621-.439-4.186-1.627-4.8-3.653a4.9,4.9,0,0,0,1.107.076,7.046,7.046,0,0,0,1.191-.156,5.3,5.3,0,0,1-4.122-5.187,5.366,5.366,0,0,0,2.264.63c-2.213-1.945-2.888-4.206-1.515-6.962l.35.4a14.666,14.666,0,0,0,8.384,4.817,11.9,11.9,0,0,0,1.687.206c.192.01.277.022.232-.251a5.205,5.205,0,0,1,4.211-6.019,5.116,5.116,0,0,1,4.574,1.4.346.346,0,0,0,.373.112,11.152,11.152,0,0,0,2.9-1.116c.05-.028.1-.052.2-.1a5.194,5.194,0,0,1-2.239,2.872,13.937,13.937,0,0,0,2.876-.73c-.085.128-.167.259-.256.385s-.2.266-.3.394a10.306,10.306,0,0,1-1.849,1.777.348.348,0,0,0-.157.331,14.934,14.934,0,0,1-3.472,10.055,13.61,13.61,0,0,1-8.3,4.924,14.8,14.8,0,0,1-10.78-1.932C113.5,459.312,113.456,459.277,113.341,459.2Z" transform="translate(-113.341 -440.884) translate(0 0)"/></g></svg>